HIERARCHY
ROOT root
{
	OFFSET 0.000000 0.000000 0.000000
	CHANNELS 6 Xposition Yposition Zposition Zrotation Yrotation Xrotation
	JOINT lhip
	{
		OFFSET 0.058581 -0.082280 -0.017664
		CHANNELS 3 Zrotation Yrotation Xrotation
		JOINT lknee
		{
			OFFSET 0.043451 -0.386469 0.008037
			CHANNELS 3 Zrotation Yrotation Xrotation
			JOINT lankle
			{
				OFFSET -0.014790 -0.426874 -0.037428
				CHANNELS 3 Zrotation Yrotation Xrotation
				JOINT ltoe
				{
					OFFSET 0.041054 -0.060286 0.122042
					CHANNELS 3 Zrotation Yrotation Xrotation
					End Site
					{
						OFFSET 0.000000 0.000000 0.000000
					}
				}
			}
		}
	}
	JOINT rhip
	{
		OFFSET -0.060310 -0.090513 -0.013543
		CHANNELS 3 Zrotation Yrotation Xrotation
		JOINT rknee
		{
			OFFSET -0.043257 -0.383688 -0.004843
			CHANNELS 3 Zrotation Yrotation Xrotation
			JOINT rankle
			{
				OFFSET 0.019056 -0.420046 -0.034562
				CHANNELS 3 Zrotation Yrotation Xrotation
				JOINT rtoe
				{
					OFFSET -0.034840 -0.062106 0.130323
					CHANNELS 3 Zrotation Yrotation Xrotation
					End Site
					{
						OFFSET 0.000000 0.000000 0.000000
					}
				}
			}
		}
	}
	JOINT lowerback
	{
		OFFSET 0.004439 0.124404 -0.038385
		CHANNELS 3 Zrotation Yrotation Xrotation
		JOINT upperback
		{
			OFFSET 0.004488 0.137956 0.026820
			CHANNELS 3 Zrotation Yrotation Xrotation
			JOINT chest
			{
				OFFSET -0.002265 0.056032 0.002855
				CHANNELS 3 Zrotation Yrotation Xrotation
				JOINT lowerneck
				{
					OFFSET -0.013390 0.211636 -0.033468
					CHANNELS 3 Zrotation Yrotation Xrotation
					JOINT upperneck
					{
						OFFSET 0.010113 0.088937 0.050410
						CHANNELS 3 Zrotation Yrotation Xrotation
						End Site
						{
							OFFSET 0.000000 0.000000 0.000000
						}
					}
				}
				JOINT lclavicle
				{
					OFFSET 0.071702 0.114000 -0.018898
					CHANNELS 3 Zrotation Yrotation Xrotation
					JOINT lshoulder
					{
						OFFSET 0.122921 0.045205 -0.019046
						CHANNELS 3 Zrotation Yrotation Xrotation
						JOINT lelbow
						{
							OFFSET 0.255332 -0.015649 -0.022946
							CHANNELS 3 Zrotation Yrotation Xrotation
							JOINT lwrist
							{
								OFFSET 0.265709 0.012698 -0.007375
								CHANNELS 3 Zrotation Yrotation Xrotation
								End Site
								{
									OFFSET 0.000000 0.000000 0.000000
								}
							}
						}
					}
				}
				JOINT rclavicle
				{
					OFFSET -0.082954 0.112472 -0.023707
					CHANNELS 3 Zrotation Yrotation Xrotation
					JOINT rshoulder
					{
						OFFSET -0.113228 0.046853 -0.008472
						CHANNELS 3 Zrotation Yrotation Xrotation
						JOINT relbow
						{
							OFFSET -0.260127 -0.014369 -0.031269
							CHANNELS 3 Zrotation Yrotation Xrotation
							JOINT rwrist
							{
								OFFSET -0.269108 0.006794 -0.006027
								CHANNELS 3 Zrotation Yrotation Xrotation
								End Site
								{
									OFFSET 0.000000 0.000000 0.000000
								}
							}
						}
					}
				}
			}
		}
	}
}
MOTION
Frames: 16
Frame Time: 0.033333
0.061283 0.231117 1.009575 87.646266 0.527473 88.707585 7.063718 0.027815 -1.415803 -4.849663 -1.583321 11.052969 0.123441 11.759119 -10.131366 0.000000 -0.000000 0.000000 -1.449683 -3.453058 -5.703701 0.306726 2.862732 12.266472 6.001590 -9.962236 -5.127662 0.000000 -0.000000 0.000000 -7.491719 2.660719 3.558738 10.176256 -4.999503 6.726307 4.436604 0.261098 -0.111232 1.494761 6.916661 -7.134519 -0.210038 -8.123954 -8.219295 -16.120720 2.214628 6.189706 -21.010690 -1.944930 30.461838 -118.104445 -47.769770 131.815302 2.598697 -15.759382 -41.921230 31.764289 -3.256577 -0.336983 28.539654 5.331185 5.332953 -41.415977 38.071671 -36.822725 12.230890 0.998231 17.010800 
0.061653 0.233071 1.009056 87.830992 0.587081 88.677169 7.161761 0.066639 -1.788144 -5.244006 -1.791549 11.781567 0.240093 11.835794 -10.480708 0.000000 -0.000000 0.000000 -1.706592 -3.364527 -6.052414 0.778553 3.156160 13.033392 6.362496 -10.530609 -5.468689 0.000000 -0.000000 0.000000 -7.672389 2.527142 3.673962 10.122254 -5.020616 6.477278 4.365814 -0.026802 0.090971 1.489274 6.836906 -7.624075 -0.097648 -7.753821 -8.040347 -15.434856 2.171567 6.695067 -20.928348 -2.207357 29.928842 -118.092592 -47.990381 132.326263 1.986614 -16.652140 -42.716975 30.826237 -3.234032 0.304175 26.496076 5.666442 4.382550 -40.151615 37.599869 -36.418546 14.819565 -0.073183 13.677222 
0.062127 0.235060 1.009233 88.080481 0.666979 88.778269 7.227687 0.089902 -2.144049 -5.505774 -1.872935 12.146662 0.171732 11.725488 -10.597100 0.000000 -0.000000 0.000000 -1.882735 -3.392976 -6.482200 1.027195 3.078020 13.573816 6.466824 -10.725431 -5.580437 0.000000 -0.000000 0.000000 -7.614654 2.311101 3.724890 9.871831 -4.995018 6.181899 4.243077 -0.245192 -0.003550 1.699502 6.759858 -7.701328 -0.088731 -7.369863 -7.842193 -14.363839 2.265649 7.075553 -20.402807 -2.654343 29.005746 -117.770786 -48.104760 132.663865 -1.552129 -19.407455 -43.962509 28.974900 -3.447283 0.459844 24.797414 5.935889 2.934389 -39.134530 36.627993 -35.846903 17.914096 -0.820381 11.138871 
0.062947 0.238315 1.011030 88.606621 0.671564 88.859269 7.079546 0.124723 -2.443340 -5.667595 -2.160188 12.190473 -0.126645 11.680582 -10.484370 0.000000 -0.000000 0.000000 -2.263745 -3.651512 -6.661010 1.309598 3.006469 13.677276 6.715384 -10.970827 -5.535099 0.000000 -0.000000 0.000000 -7.222881 2.032834 3.697056 9.298792 -4.935246 5.512419 4.054299 -0.500791 0.081512 1.779589 6.378228 -7.210889 0.020372 -6.744586 -7.748070 -12.483537 2.430312 7.328128 -19.322210 -3.388434 27.600121 -116.559765 -48.729458 131.995761 -4.416045 -23.072793 -43.613731 25.573705 -4.002993 -0.209171 22.046620 5.431773 0.889933 -37.346953 35.913457 -34.981750 20.665314 -0.955663 7.527187 
0.063307 0.240605 1.012436 89.002977 0.642802 89.077573 6.898329 0.035195 -2.742216 -5.653815 -2.389214 12.034096 -0.425067 11.639903 -10.231799 0.000000 -0.000000 0.000000 -2.538843 -3.881470 -6.788313 1.483470 3.022174 13.455583 6.939066 -11.287620 -5.308385 0.000000 -0.000000 0.000000 -6.845685 1.856599 3.489356 8.921277 -4.948504 5.046435 3.883097 -0.667242 0.244904 1.664761 5.865464 -7.020126 0.084713 -6.301040 -7.631046 -11.437881 2.350534 7.371678 -18.186292 -3.665904 26.977142 -115.777206 -49.286150 130.742595 -5.340910 -24.522098 -43.017130 23.693280 -4.272206 -0.635951 19.304325 4.630668 -0.361987 -36.681743 35.899261 -35.188597 22.176140 -1.003807 6.106479 
0.064503 0.243627 1.014796 89.342011 0.532217 89.182402 6.522756 0.094002 -2.770174 -5.550233 -2.708512 11.733764 -0.625803 11.714136 -9.921981 0.000000 -0.000000 0.000000 -2.895786 -4.088226 -6.639395 1.552613 3.199301 12.984241 7.291701 -11.633759 -4.979830 0.000000 -0.000000 0.000000 -6.462702 1.635308 3.254905 8.474177 -4.926118 4.478235 3.786107 -0.849957 0.477302 1.341649 5.016831 -6.327849 0.192042 -5.494230 -7.753762 -10.149362 2.085507 7.147249 -16.755246 -3.772592 26.381607 -113.935890 -50.139869 128.365657 -6.099353 -25.657536 -41.559570 20.830578 -4.362836 -1.474248 15.403387 3.519124 -2.071298 -35.785230 35.588406 -35.441505 23.824247 -1.097557 5.099534 
0.065610 0.246728 1.016490 89.659249 0.511948 89.364511 6.292551 0.130522 -2.713282 -5.579351 -3.290070 11.110545 -0.878389 11.943926 -9.557142 0.000000 -0.000000 0.000000 -3.173664 -4.322676 -6.590658 1.733825 3.454943 12.573444 7.518278 -12.110122 -4.782325 0.000000 -0.000000 0.000000 -5.778790 1.278528 3.088350 7.940817 -4.914771 3.713936 3.595498 -1.112494 0.670949 1.037568 4.186017 -5.345299 0.146356 -4.495079 -7.694671 -8.799757 1.977210 6.808575 -15.752029 -3.682725 25.843394 -111.098386 -50.828103 125.932221 -7.543244 -26.363408 -39.861976 17.770821 -4.400166 -2.465949 11.442476 2.768416 -3.835641 -34.651051 35.231832 -35.230920 25.162019 -1.306916 4.515114 
0.066389 0.249873 1.017460 89.630091 0.440109 89.452905 5.918273 0.211754 -2.848715 -5.455265 -3.687561 11.243550 -1.073261 12.342045 -9.518782 0.000000 -0.000000 0.000000 -3.327176 -4.384928 -6.682815 1.657163 3.953421 12.515442 7.760782 -12.587960 -4.728949 0.000000 -0.000000 0.000000 -5.116994 1.008280 3.006567 7.415288 -4.805386 2.903451 3.359303 -1.251755 0.961649 0.754747 3.658823 -4.408967 0.023573 -3.500472 -7.352031 -7.565385 1.904537 6.432029 -15.009415 -3.614000 25.190576 -107.193779 -51.197819 121.999807 -9.364153 -27.194280 -38.754342 14.822926 -4.614334 -3.712650 7.475840 2.676187 -5.969506 -33.462446 34.641171 -34.899835 26.398260 -1.867641 4.759049 
0.067003 0.252672 1.018273 89.396153 0.443953 89.468292 5.578974 0.457809 -2.980970 -5.196275 -4.072153 11.577527 -1.316952 12.684840 -9.614230 0.000000 -0.000000 0.000000 -3.491231 -4.456127 -6.698694 1.754340 4.361301 12.445579 7.882085 -12.896314 -4.526596 0.000000 -0.000000 0.000000 -4.399168 0.704294 2.958180 6.876836 -4.670108 2.236699 3.142270 -1.305635 1.249749 0.706141 3.190300 -3.465397 -0.479631 -2.542935 -7.008594 -6.579950 2.035735 6.046430 -14.502389 -3.515155 24.326294 -102.371399 -51.437008 118.460241 -11.215798 -27.947433 -36.066802 12.157428 -4.538161 -4.527217 3.463975 2.614792 -8.458988 -32.094954 33.993867 -34.001921 26.558360 -1.542731 3.413344 
0.068338 0.255390 1.019320 88.750125 0.419137 89.451537 5.227617 0.936774 -2.545933 -4.881410 -4.320185 11.114844 -1.463888 13.055662 -9.397065 0.000000 -0.000000 0.000000 -3.574002 -4.431573 -6.725890 1.728005 5.214447 12.411270 8.082854 -13.115061 -4.307645 0.000000 -0.000000 0.000000 -3.525019 0.500010 2.684268 6.172584 -4.331694 1.803749 2.766110 -1.376187 1.512789 0.760264 2.516112 -2.284137 -0.963366 -1.325425 -7.019013 -5.760065 2.212334 5.245448 -13.952464 -3.144366 23.154808 -95.228704 -51.691129 113.355458 -14.680548 -28.445589 -29.850454 9.012779 -4.270817 -5.686533 -1.275038 2.717821 -11.488760 -30.221137 32.593311 -32.981375 27.762680 -1.513901 4.113602 
0.069145 0.257014 1.020200 88.139055 0.410169 89.471838 4.931590 1.455011 -2.098870 -4.490980 -4.512344 10.453385 -1.615147 13.355922 -9.239972 0.000000 -0.000000 0.000000 -3.538552 -4.382098 -6.766003 1.632829 5.829677 12.237721 8.130654 -13.288763 -4.117119 0.000000 -0.000000 0.000000 -2.796574 0.288782 2.549082 5.507918 -3.980100 1.300376 2.517290 -1.394841 1.700422 0.818402 1.860303 -1.430998 -1.363403 -0.413680 -7.029020 -5.261527 2.234077 4.640298 -13.833755 -2.730973 22.172730 -87.954297 -51.809910 107.590982 -17.969009 -28.219264 -25.157568 6.533475 -3.813529 -6.506781 -4.879315 2.829712 -13.861408 -27.905283 31.167906 -31.764788 28.260662 -0.985996 3.421451 
0.070036 0.257981 1.021010 87.595585 0.436529 89.459092 4.690190 1.968655 -1.564250 -4.059796 -4.912573 9.710021 -1.782674 13.699318 -9.023249 0.000000 -0.000000 0.000000 -3.447526 -4.350607 -6.678766 1.549779 6.318551 11.910605 8.103778 -13.504450 -3.954876 0.000000 -0.000000 0.000000 -2.110019 0.155430 2.333525 4.890096 -3.742651 1.009573 2.268580 -1.429454 1.836525 0.901676 1.302329 -0.673262 -1.627374 0.350867 -6.975526 -5.015401 2.025241 4.053635 -13.815465 -2.200033 21.362733 -79.536441 -51.217206 100.033732 -19.575033 -27.274073 -21.048626 4.250601 -3.136287 -7.312489 -8.051742 2.995561 -15.905480 -25.822893 29.393672 -30.754488 27.518255 -0.627123 2.260705 
0.070981 0.258394 1.021808 87.174507 0.470397 89.445044 4.457499 2.202118 -0.803260 -3.518247 -5.187216 8.556781 -1.819605 13.953998 -8.670001 0.000000 -0.000000 0.000000 -3.338517 -4.291366 -6.386406 1.406754 6.808732 11.354322 8.090204 -13.619573 -3.699890 0.000000 -0.000000 0.000000 -1.464764 -0.044722 2.284051 4.275154 -3.655109 0.490299 1.998189 -1.459317 1.906051 0.983304 0.795477 0.173285 -1.820617 1.225345 -7.044276 -4.879793 1.718738 3.330041 -14.066047 -1.625072 20.483357 -70.569438 -49.788293 91.527187 -22.332103 -26.361220 -17.832682 2.093354 -2.402505 -8.335363 -10.720277 3.812396 -18.015138 -24.267507 27.045272 -29.758020 28.074918 -1.552232 3.764040 
0.071384 0.258559 1.022268 86.816497 0.531706 89.640926 4.286796 2.572417 -0.676461 -3.070088 -5.373552 8.146594 -1.910273 14.072594 -8.529943 0.000000 -0.000000 0.000000 -3.174246 -4.225458 -6.389840 1.290253 7.264174 10.909790 7.958309 -13.769984 -3.503775 0.000000 -0.000000 0.000000 -0.916062 -0.196587 2.081958 3.729377 -3.517359 -0.037220 1.796731 -1.453608 1.939711 1.151511 0.293403 0.770938 -2.076714 1.846152 -6.819268 -4.841547 1.264155 2.921608 -14.701294 -1.408805 19.317015 -61.506410 -47.423304 83.325762 -24.815524 -25.556098 -15.024898 0.355200 -1.513228 -8.818388 -13.306390 4.283636 -19.766818 -22.687784 24.730108 -27.925183 27.266245 -1.601483 3.696163 
0.072079 0.258612 1.022608 86.600798 0.594794 89.793280 4.098465 2.915133 -0.291605 -2.490891 -5.501741 7.285273 -2.025752 14.064579 -8.182875 0.000000 -0.000000 0.000000 -2.995575 -4.228467 -6.247771 1.085553 7.610186 10.377615 7.851248 -13.806204 -3.286028 0.000000 -0.000000 0.000000 -0.416605 -0.295497 1.901403 3.270883 -3.454108 -0.493530 1.566112 -1.505903 1.983015 1.333381 0.054050 1.083740 -2.312830 2.445900 -6.327528 -4.992561 0.780704 2.375689 -15.558635 -1.351107 18.081200 -53.154115 -44.100263 75.830746 -26.782483 -24.545514 -11.995404 -0.887930 -0.790969 -9.497095 -15.764345 5.011427 -21.973524 -21.226957 22.442443 -25.800920 27.181055 -1.875044 4.943803 
0.072216 0.258184 1.022942 86.466294 0.658793 89.970192 4.079568 3.131028 -0.112971 -2.194235 -5.484750 6.648062 -2.139445 13.981982 -7.894917 0.000000 -0.000000 0.000000 -2.824187 -4.192698 -6.202731 0.974536 7.901605 9.893171 7.726431 -13.932199 -3.054581 0.000000 -0.000000 0.000000 -0.080994 -0.408584 1.840952 2.834185 -3.441755 -0.985592 1.425171 -1.667545 2.039898 1.555522 -0.218433 1.240090 -2.430344 3.062843 -6.015692 -5.166173 0.460959 2.026491 -16.388768 -1.421942 16.665707 -46.421191 -40.614096 68.704807 -28.717744 -23.977986 -10.559660 -2.216598 -0.289444 -9.980015 -17.359842 5.864179 -23.607937 -20.176604 20.217806 -24.861318 26.920772 -1.896882 6.142196 
